<mxfile host="app.diagrams.net" agent="Mozilla/5.0 (Macintosh; Intel Mac OS X 10_15_7) AppleWebKit/537.36 (KHTML, like Gecko) Chrome/133.0.0.0 Safari/537.36" version="26.0.16">
  <diagram name="Page-1" id="UDQxoDeWZDwgIj5JbKBm">
    <mxGraphModel dx="1194" dy="789" grid="1" gridSize="10" guides="1" tooltips="1" connect="1" arrows="1" fold="1" page="1" pageScale="1" pageWidth="1169" pageHeight="827" background="#ffffff" math="0" shadow="0">
      <root>
        <mxCell id="0" />
        <mxCell id="1" parent="0" />
        <mxCell id="H0bmIItS4Dz55dsVRSiV-11" style="edgeStyle=orthogonalEdgeStyle;rounded=0;orthogonalLoop=1;jettySize=auto;html=1;exitX=0.5;exitY=0;exitDx=0;exitDy=0;entryX=0.5;entryY=1;entryDx=0;entryDy=0;shadow=1;strokeColor=default;endArrow=none;endFill=0;curved=1;" parent="1" source="H0bmIItS4Dz55dsVRSiV-1" target="H0bmIItS4Dz55dsVRSiV-7" edge="1">
          <mxGeometry relative="1" as="geometry" />
        </mxCell>
        <mxCell id="H0bmIItS4Dz55dsVRSiV-12" style="edgeStyle=orthogonalEdgeStyle;rounded=0;orthogonalLoop=1;jettySize=auto;html=1;exitX=0.75;exitY=0;exitDx=0;exitDy=0;shadow=1;strokeColor=default;endArrow=none;endFill=0;curved=1;" parent="1" source="H0bmIItS4Dz55dsVRSiV-1" target="H0bmIItS4Dz55dsVRSiV-8" edge="1">
          <mxGeometry relative="1" as="geometry" />
        </mxCell>
        <mxCell id="H0bmIItS4Dz55dsVRSiV-14" style="edgeStyle=orthogonalEdgeStyle;rounded=0;orthogonalLoop=1;jettySize=auto;html=1;exitX=1;exitY=0.5;exitDx=0;exitDy=0;shadow=1;strokeColor=default;endArrow=none;endFill=0;curved=1;" parent="1" source="H0bmIItS4Dz55dsVRSiV-1" target="H0bmIItS4Dz55dsVRSiV-10" edge="1">
          <mxGeometry relative="1" as="geometry" />
        </mxCell>
        <mxCell id="H0bmIItS4Dz55dsVRSiV-15" style="edgeStyle=orthogonalEdgeStyle;rounded=0;orthogonalLoop=1;jettySize=auto;html=1;exitX=1;exitY=1;exitDx=0;exitDy=0;entryX=0;entryY=0.5;entryDx=0;entryDy=0;shadow=1;strokeColor=default;endArrow=none;endFill=0;curved=1;" parent="1" source="H0bmIItS4Dz55dsVRSiV-1" target="H0bmIItS4Dz55dsVRSiV-9" edge="1">
          <mxGeometry relative="1" as="geometry" />
        </mxCell>
        <mxCell id="H0bmIItS4Dz55dsVRSiV-16" style="edgeStyle=orthogonalEdgeStyle;rounded=0;orthogonalLoop=1;jettySize=auto;html=1;entryX=1;entryY=0.5;entryDx=0;entryDy=0;shadow=1;strokeColor=default;endArrow=ERzeroToMany;endFill=0;startArrow=ERmandOne;startFill=0;curved=1;" parent="1" source="H0bmIItS4Dz55dsVRSiV-1" target="H0bmIItS4Dz55dsVRSiV-2" edge="1">
          <mxGeometry relative="1" as="geometry" />
        </mxCell>
        <mxCell id="H0bmIItS4Dz55dsVRSiV-19" style="edgeStyle=orthogonalEdgeStyle;rounded=0;orthogonalLoop=1;jettySize=auto;html=1;exitX=0.75;exitY=1;exitDx=0;exitDy=0;entryX=0.5;entryY=0;entryDx=0;entryDy=0;shadow=1;strokeColor=default;endArrow=ERzeroToMany;endFill=0;startArrow=ERmandOne;startFill=0;curved=1;" parent="1" source="H0bmIItS4Dz55dsVRSiV-1" target="H0bmIItS4Dz55dsVRSiV-4" edge="1">
          <mxGeometry relative="1" as="geometry" />
        </mxCell>
        <mxCell id="H0bmIItS4Dz55dsVRSiV-1" value="User" style="rounded=0;whiteSpace=wrap;html=1;shadow=1;strokeColor=default;" parent="1" vertex="1">
          <mxGeometry x="740" y="160" width="120" height="60" as="geometry" />
        </mxCell>
        <mxCell id="H0bmIItS4Dz55dsVRSiV-20" style="edgeStyle=orthogonalEdgeStyle;rounded=0;orthogonalLoop=1;jettySize=auto;html=1;exitX=0.5;exitY=0;exitDx=0;exitDy=0;entryX=0.5;entryY=1;entryDx=0;entryDy=0;shadow=1;strokeColor=default;endArrow=ERzeroToMany;endFill=0;startArrow=ERmandOne;startFill=0;" parent="1" source="H0bmIItS4Dz55dsVRSiV-2" target="H0bmIItS4Dz55dsVRSiV-6" edge="1">
          <mxGeometry relative="1" as="geometry" />
        </mxCell>
        <mxCell id="H0bmIItS4Dz55dsVRSiV-25" style="edgeStyle=orthogonalEdgeStyle;rounded=0;orthogonalLoop=1;jettySize=auto;html=1;exitX=0;exitY=0;exitDx=0;exitDy=0;entryX=1;entryY=0.5;entryDx=0;entryDy=0;shadow=1;strokeColor=default;endArrow=baseDash;endFill=0;curved=1;" parent="1" source="H0bmIItS4Dz55dsVRSiV-2" target="H0bmIItS4Dz55dsVRSiV-21" edge="1">
          <mxGeometry relative="1" as="geometry" />
        </mxCell>
        <mxCell id="H0bmIItS4Dz55dsVRSiV-26" style="edgeStyle=orthogonalEdgeStyle;rounded=0;orthogonalLoop=1;jettySize=auto;html=1;exitX=0;exitY=0.5;exitDx=0;exitDy=0;entryX=1;entryY=0.5;entryDx=0;entryDy=0;shadow=1;strokeColor=default;endArrow=baseDash;endFill=0;curved=1;" parent="1" source="H0bmIItS4Dz55dsVRSiV-2" target="H0bmIItS4Dz55dsVRSiV-23" edge="1">
          <mxGeometry relative="1" as="geometry" />
        </mxCell>
        <mxCell id="H0bmIItS4Dz55dsVRSiV-27" style="edgeStyle=orthogonalEdgeStyle;rounded=0;orthogonalLoop=1;jettySize=auto;html=1;exitX=0;exitY=1;exitDx=0;exitDy=0;entryX=1;entryY=0.5;entryDx=0;entryDy=0;shadow=1;strokeColor=default;endArrow=baseDash;endFill=0;curved=1;" parent="1" source="H0bmIItS4Dz55dsVRSiV-2" target="H0bmIItS4Dz55dsVRSiV-24" edge="1">
          <mxGeometry relative="1" as="geometry" />
        </mxCell>
        <mxCell id="H0bmIItS4Dz55dsVRSiV-30" style="edgeStyle=orthogonalEdgeStyle;rounded=0;orthogonalLoop=1;jettySize=auto;html=1;exitX=0.25;exitY=1;exitDx=0;exitDy=0;shadow=1;strokeColor=default;endArrow=baseDash;endFill=0;curved=1;" parent="1" source="H0bmIItS4Dz55dsVRSiV-2" target="H0bmIItS4Dz55dsVRSiV-28" edge="1">
          <mxGeometry relative="1" as="geometry">
            <Array as="points">
              <mxPoint x="300" y="510" />
              <mxPoint x="255" y="510" />
            </Array>
          </mxGeometry>
        </mxCell>
        <mxCell id="H0bmIItS4Dz55dsVRSiV-32" style="edgeStyle=orthogonalEdgeStyle;rounded=0;orthogonalLoop=1;jettySize=auto;html=1;exitX=0.5;exitY=1;exitDx=0;exitDy=0;shadow=1;strokeColor=default;endArrow=baseDash;endFill=0;curved=1;" parent="1" source="H0bmIItS4Dz55dsVRSiV-2" target="H0bmIItS4Dz55dsVRSiV-31" edge="1">
          <mxGeometry relative="1" as="geometry">
            <Array as="points">
              <mxPoint x="330" y="540" />
              <mxPoint x="215" y="540" />
            </Array>
          </mxGeometry>
        </mxCell>
        <mxCell id="H0bmIItS4Dz55dsVRSiV-35" style="edgeStyle=orthogonalEdgeStyle;rounded=0;orthogonalLoop=1;jettySize=auto;html=1;exitX=0.75;exitY=1;exitDx=0;exitDy=0;shadow=1;strokeColor=default;endArrow=ERzeroToMany;endFill=0;startArrow=ERmandOne;startFill=0;curved=1;" parent="1" source="H0bmIItS4Dz55dsVRSiV-2" target="H0bmIItS4Dz55dsVRSiV-3" edge="1">
          <mxGeometry relative="1" as="geometry" />
        </mxCell>
        <mxCell id="H0bmIItS4Dz55dsVRSiV-36" style="edgeStyle=orthogonalEdgeStyle;rounded=0;orthogonalLoop=1;jettySize=auto;html=1;exitX=1;exitY=0.75;exitDx=0;exitDy=0;entryX=0.25;entryY=0;entryDx=0;entryDy=0;shadow=1;strokeColor=default;endArrow=ERzeroToMany;endFill=0;startArrow=ERmandOne;startFill=0;curved=1;" parent="1" source="H0bmIItS4Dz55dsVRSiV-2" target="H0bmIItS4Dz55dsVRSiV-4" edge="1">
          <mxGeometry relative="1" as="geometry">
            <Array as="points">
              <mxPoint x="390" y="440" />
              <mxPoint x="970" y="440" />
            </Array>
          </mxGeometry>
        </mxCell>
        <mxCell id="H0bmIItS4Dz55dsVRSiV-2" value="M_Event" style="rounded=0;whiteSpace=wrap;html=1;shadow=1;strokeColor=default;" parent="1" vertex="1">
          <mxGeometry x="270" y="354" width="120" height="60" as="geometry" />
        </mxCell>
        <mxCell id="H0bmIItS4Dz55dsVRSiV-42" style="edgeStyle=orthogonalEdgeStyle;rounded=0;orthogonalLoop=1;jettySize=auto;html=1;exitX=0.75;exitY=1;exitDx=0;exitDy=0;entryX=0.5;entryY=0;entryDx=0;entryDy=0;shadow=1;strokeColor=default;endArrow=none;endFill=0;curved=1;" parent="1" source="H0bmIItS4Dz55dsVRSiV-3" target="H0bmIItS4Dz55dsVRSiV-39" edge="1">
          <mxGeometry relative="1" as="geometry">
            <Array as="points">
              <mxPoint x="620" y="630" />
              <mxPoint x="715" y="630" />
            </Array>
          </mxGeometry>
        </mxCell>
        <mxCell id="H0bmIItS4Dz55dsVRSiV-43" style="edgeStyle=orthogonalEdgeStyle;rounded=0;orthogonalLoop=1;jettySize=auto;html=1;exitX=0.25;exitY=1;exitDx=0;exitDy=0;shadow=1;strokeColor=default;endArrow=none;endFill=0;curved=1;" parent="1" source="H0bmIItS4Dz55dsVRSiV-3" target="H0bmIItS4Dz55dsVRSiV-38" edge="1">
          <mxGeometry relative="1" as="geometry" />
        </mxCell>
        <mxCell id="H0bmIItS4Dz55dsVRSiV-44" style="edgeStyle=orthogonalEdgeStyle;rounded=0;orthogonalLoop=1;jettySize=auto;html=1;exitX=0;exitY=0.75;exitDx=0;exitDy=0;shadow=1;strokeColor=default;endArrow=none;endFill=0;curved=1;" parent="1" source="H0bmIItS4Dz55dsVRSiV-3" target="H0bmIItS4Dz55dsVRSiV-37" edge="1">
          <mxGeometry relative="1" as="geometry" />
        </mxCell>
        <mxCell id="H0bmIItS4Dz55dsVRSiV-55" style="edgeStyle=orthogonalEdgeStyle;rounded=0;orthogonalLoop=1;jettySize=auto;html=1;exitX=1;exitY=0.5;exitDx=0;exitDy=0;entryX=0;entryY=0.5;entryDx=0;entryDy=0;shadow=1;strokeColor=default;endArrow=none;endFill=0;curved=1;" parent="1" source="H0bmIItS4Dz55dsVRSiV-3" target="H0bmIItS4Dz55dsVRSiV-40" edge="1">
          <mxGeometry relative="1" as="geometry" />
        </mxCell>
        <mxCell id="H0bmIItS4Dz55dsVRSiV-3" value="Schedule" style="rounded=0;whiteSpace=wrap;html=1;shadow=1;strokeColor=default;" parent="1" vertex="1">
          <mxGeometry x="530" y="540" width="120" height="60" as="geometry" />
        </mxCell>
        <mxCell id="H0bmIItS4Dz55dsVRSiV-59" style="edgeStyle=orthogonalEdgeStyle;rounded=0;orthogonalLoop=1;jettySize=auto;html=1;exitX=0;exitY=1;exitDx=0;exitDy=0;entryX=0.5;entryY=0;entryDx=0;entryDy=0;shadow=1;strokeColor=default;endArrow=none;endFill=0;curved=1;" parent="1" source="H0bmIItS4Dz55dsVRSiV-4" target="H0bmIItS4Dz55dsVRSiV-56" edge="1">
          <mxGeometry relative="1" as="geometry" />
        </mxCell>
        <mxCell id="H0bmIItS4Dz55dsVRSiV-60" style="edgeStyle=orthogonalEdgeStyle;rounded=0;orthogonalLoop=1;jettySize=auto;html=1;exitX=0.5;exitY=1;exitDx=0;exitDy=0;entryX=1;entryY=0;entryDx=0;entryDy=0;shadow=1;strokeColor=default;endArrow=none;endFill=0;curved=1;" parent="1" source="H0bmIItS4Dz55dsVRSiV-4" target="H0bmIItS4Dz55dsVRSiV-57" edge="1">
          <mxGeometry relative="1" as="geometry">
            <Array as="points">
              <mxPoint x="1000" y="730" />
              <mxPoint x="972" y="730" />
            </Array>
          </mxGeometry>
        </mxCell>
        <mxCell id="H0bmIItS4Dz55dsVRSiV-61" style="edgeStyle=orthogonalEdgeStyle;rounded=0;orthogonalLoop=1;jettySize=auto;html=1;exitX=1;exitY=0;exitDx=0;exitDy=0;entryX=0.5;entryY=1;entryDx=0;entryDy=0;shadow=1;strokeColor=default;endArrow=none;endFill=0;curved=1;" parent="1" source="H0bmIItS4Dz55dsVRSiV-4" target="H0bmIItS4Dz55dsVRSiV-58" edge="1">
          <mxGeometry relative="1" as="geometry" />
        </mxCell>
        <mxCell id="H0bmIItS4Dz55dsVRSiV-63" style="edgeStyle=orthogonalEdgeStyle;rounded=0;orthogonalLoop=1;jettySize=auto;html=1;exitX=1;exitY=1;exitDx=0;exitDy=0;entryX=0.5;entryY=0;entryDx=0;entryDy=0;shadow=1;strokeColor=default;endArrow=none;endFill=0;curved=1;" parent="1" source="H0bmIItS4Dz55dsVRSiV-4" target="H0bmIItS4Dz55dsVRSiV-62" edge="1">
          <mxGeometry relative="1" as="geometry" />
        </mxCell>
        <mxCell id="H0bmIItS4Dz55dsVRSiV-4" value="Attandence" style="rounded=0;whiteSpace=wrap;html=1;shadow=1;strokeColor=default;" parent="1" vertex="1">
          <mxGeometry x="940" y="600" width="120" height="60" as="geometry" />
        </mxCell>
        <mxCell id="H0bmIItS4Dz55dsVRSiV-48" style="edgeStyle=orthogonalEdgeStyle;rounded=0;orthogonalLoop=1;jettySize=auto;html=1;exitX=0;exitY=0.25;exitDx=0;exitDy=0;entryX=0.5;entryY=1;entryDx=0;entryDy=0;shadow=1;strokeColor=default;endArrow=baseDash;endFill=0;curved=1;" parent="1" source="H0bmIItS4Dz55dsVRSiV-6" target="H0bmIItS4Dz55dsVRSiV-46" edge="1">
          <mxGeometry relative="1" as="geometry" />
        </mxCell>
        <mxCell id="H0bmIItS4Dz55dsVRSiV-49" style="edgeStyle=orthogonalEdgeStyle;rounded=0;orthogonalLoop=1;jettySize=auto;html=1;exitX=0.25;exitY=0;exitDx=0;exitDy=0;entryX=1;entryY=0.5;entryDx=0;entryDy=0;shadow=1;strokeColor=default;endArrow=none;endFill=0;curved=1;" parent="1" source="H0bmIItS4Dz55dsVRSiV-6" target="H0bmIItS4Dz55dsVRSiV-47" edge="1">
          <mxGeometry relative="1" as="geometry" />
        </mxCell>
        <mxCell id="H0bmIItS4Dz55dsVRSiV-51" style="edgeStyle=orthogonalEdgeStyle;rounded=0;orthogonalLoop=1;jettySize=auto;html=1;exitX=0.75;exitY=0;exitDx=0;exitDy=0;entryX=0.5;entryY=1;entryDx=0;entryDy=0;shadow=1;strokeColor=default;endArrow=baseDash;endFill=0;curved=1;" parent="1" source="H0bmIItS4Dz55dsVRSiV-6" target="H0bmIItS4Dz55dsVRSiV-50" edge="1">
          <mxGeometry relative="1" as="geometry" />
        </mxCell>
        <mxCell id="H0bmIItS4Dz55dsVRSiV-53" style="edgeStyle=orthogonalEdgeStyle;rounded=0;orthogonalLoop=1;jettySize=auto;html=1;exitX=1;exitY=0.5;exitDx=0;exitDy=0;entryX=0.5;entryY=1;entryDx=0;entryDy=0;shadow=1;strokeColor=default;endArrow=baseDash;endFill=0;curved=1;" parent="1" source="H0bmIItS4Dz55dsVRSiV-6" target="H0bmIItS4Dz55dsVRSiV-52" edge="1">
          <mxGeometry relative="1" as="geometry" />
        </mxCell>
        <mxCell id="H0bmIItS4Dz55dsVRSiV-6" value="S_Event" style="rounded=0;whiteSpace=wrap;html=1;shadow=1;strokeColor=default;" parent="1" vertex="1">
          <mxGeometry x="270" y="140" width="120" height="60" as="geometry" />
        </mxCell>
        <mxCell id="H0bmIItS4Dz55dsVRSiV-7" value="&lt;u&gt;uid&lt;/u&gt;" style="ellipse;whiteSpace=wrap;html=1;shadow=1;strokeColor=default;" parent="1" vertex="1">
          <mxGeometry x="820" y="20" width="170" height="50" as="geometry" />
        </mxCell>
        <mxCell id="H0bmIItS4Dz55dsVRSiV-8" value="email" style="ellipse;whiteSpace=wrap;html=1;shadow=1;strokeColor=default;" parent="1" vertex="1">
          <mxGeometry x="960" y="70" width="170" height="50" as="geometry" />
        </mxCell>
        <mxCell id="H0bmIItS4Dz55dsVRSiV-9" value="Role" style="ellipse;whiteSpace=wrap;html=1;shadow=1;strokeColor=default;" parent="1" vertex="1">
          <mxGeometry x="970" y="240" width="170" height="50" as="geometry" />
        </mxCell>
        <mxCell id="H0bmIItS4Dz55dsVRSiV-10" value="Password" style="ellipse;whiteSpace=wrap;html=1;shadow=1;strokeColor=default;" parent="1" vertex="1">
          <mxGeometry x="960" y="165" width="170" height="50" as="geometry" />
        </mxCell>
        <mxCell id="H0bmIItS4Dz55dsVRSiV-21" value="&lt;u&gt;ME_id&lt;/u&gt;" style="ellipse;whiteSpace=wrap;html=1;shadow=1;strokeColor=default;" parent="1" vertex="1">
          <mxGeometry x="20" y="280" width="170" height="50" as="geometry" />
        </mxCell>
        <mxCell id="H0bmIItS4Dz55dsVRSiV-23" value="title" style="ellipse;whiteSpace=wrap;html=1;shadow=1;strokeColor=default;" parent="1" vertex="1">
          <mxGeometry x="40" y="340" width="170" height="50" as="geometry" />
        </mxCell>
        <mxCell id="H0bmIItS4Dz55dsVRSiV-24" value="description" style="ellipse;whiteSpace=wrap;html=1;shadow=1;strokeColor=default;" parent="1" vertex="1">
          <mxGeometry x="30" y="400" width="170" height="50" as="geometry" />
        </mxCell>
        <mxCell id="H0bmIItS4Dz55dsVRSiV-28" value="location" style="ellipse;whiteSpace=wrap;html=1;shadow=1;strokeColor=default;" parent="1" vertex="1">
          <mxGeometry x="70" y="470" width="170" height="50" as="geometry" />
        </mxCell>
        <mxCell id="H0bmIItS4Dz55dsVRSiV-31" value="u_id" style="ellipse;whiteSpace=wrap;html=1;shadow=1;strokeColor=default;" parent="1" vertex="1">
          <mxGeometry x="130" y="560" width="170" height="50" as="geometry" />
        </mxCell>
        <mxCell id="H0bmIItS4Dz55dsVRSiV-33" value="" style="endArrow=none;html=1;rounded=0;shadow=1;strokeColor=default;dashed=1;" parent="1" edge="1">
          <mxGeometry width="50" height="50" relative="1" as="geometry">
            <mxPoint x="206" y="595" as="sourcePoint" />
            <mxPoint x="226" y="595" as="targetPoint" />
          </mxGeometry>
        </mxCell>
        <mxCell id="H0bmIItS4Dz55dsVRSiV-37" value="&lt;u&gt;s_id&lt;/u&gt;" style="ellipse;whiteSpace=wrap;html=1;shadow=1;strokeColor=default;" parent="1" vertex="1">
          <mxGeometry x="350" y="630" width="170" height="50" as="geometry" />
        </mxCell>
        <mxCell id="H0bmIItS4Dz55dsVRSiV-38" value="ME_id" style="ellipse;whiteSpace=wrap;html=1;shadow=1;strokeColor=default;" parent="1" vertex="1">
          <mxGeometry x="460" y="680" width="170" height="50" as="geometry" />
        </mxCell>
        <mxCell id="H0bmIItS4Dz55dsVRSiV-39" value="day" style="ellipse;whiteSpace=wrap;html=1;shadow=1;strokeColor=default;" parent="1" vertex="1">
          <mxGeometry x="630" y="650" width="170" height="50" as="geometry" />
        </mxCell>
        <mxCell id="H0bmIItS4Dz55dsVRSiV-40" value="time" style="ellipse;whiteSpace=wrap;html=1;shadow=1;strokeColor=default;" parent="1" vertex="1">
          <mxGeometry x="715" y="590" width="170" height="50" as="geometry" />
        </mxCell>
        <mxCell id="H0bmIItS4Dz55dsVRSiV-45" value="" style="endArrow=none;html=1;rounded=0;shadow=1;strokeColor=default;dashed=1;" parent="1" edge="1">
          <mxGeometry width="50" height="50" relative="1" as="geometry">
            <mxPoint x="534" y="714" as="sourcePoint" />
            <mxPoint x="554" y="714" as="targetPoint" />
          </mxGeometry>
        </mxCell>
        <mxCell id="H0bmIItS4Dz55dsVRSiV-46" value="&lt;u&gt;SE_id&lt;/u&gt;" style="ellipse;whiteSpace=wrap;html=1;shadow=1;strokeColor=default;" parent="1" vertex="1">
          <mxGeometry x="50" y="80" width="170" height="50" as="geometry" />
        </mxCell>
        <mxCell id="H0bmIItS4Dz55dsVRSiV-47" value="title" style="ellipse;whiteSpace=wrap;html=1;shadow=1;strokeColor=default;" parent="1" vertex="1">
          <mxGeometry x="100" y="20" width="170" height="50" as="geometry" />
        </mxCell>
        <mxCell id="H0bmIItS4Dz55dsVRSiV-50" value="date &amp;amp; time" style="ellipse;whiteSpace=wrap;html=1;strokeColor=default;shadow=1;" parent="1" vertex="1">
          <mxGeometry x="310" y="5" width="170" height="50" as="geometry" />
        </mxCell>
        <mxCell id="H0bmIItS4Dz55dsVRSiV-52" value="ME_id" style="ellipse;whiteSpace=wrap;html=1;shadow=1;strokeColor=default;" parent="1" vertex="1">
          <mxGeometry x="415" y="90" width="170" height="50" as="geometry" />
        </mxCell>
        <mxCell id="H0bmIItS4Dz55dsVRSiV-54" value="" style="endArrow=none;html=1;rounded=0;shadow=1;strokeColor=default;dashed=1;" parent="1" edge="1">
          <mxGeometry width="50" height="50" relative="1" as="geometry">
            <mxPoint x="490" y="125" as="sourcePoint" />
            <mxPoint x="510" y="125" as="targetPoint" />
          </mxGeometry>
        </mxCell>
        <mxCell id="H0bmIItS4Dz55dsVRSiV-56" value="&lt;u&gt;a_id&lt;/u&gt;" style="ellipse;whiteSpace=wrap;html=1;shadow=1;strokeColor=default;" parent="1" vertex="1">
          <mxGeometry x="790" y="700" width="140" height="50" as="geometry" />
        </mxCell>
        <mxCell id="H0bmIItS4Dz55dsVRSiV-57" value="ME_id" style="ellipse;whiteSpace=wrap;html=1;shadow=1;strokeColor=default;" parent="1" vertex="1">
          <mxGeometry x="860" y="760" width="130" height="50" as="geometry" />
        </mxCell>
        <mxCell id="H0bmIItS4Dz55dsVRSiV-58" value="u_id" style="ellipse;whiteSpace=wrap;html=1;shadow=1;strokeColor=default;" parent="1" vertex="1">
          <mxGeometry x="1020" y="500" width="130" height="50" as="geometry" />
        </mxCell>
        <mxCell id="H0bmIItS4Dz55dsVRSiV-62" value="date &amp;amp; time" style="ellipse;whiteSpace=wrap;html=1;shadow=1;strokeColor=default;" parent="1" vertex="1">
          <mxGeometry x="1030" y="700" width="130" height="50" as="geometry" />
        </mxCell>
        <mxCell id="H0bmIItS4Dz55dsVRSiV-64" value="QRcode" style="ellipse;whiteSpace=wrap;html=1;shadow=1;strokeColor=default;" parent="1" vertex="1">
          <mxGeometry x="1010" y="760" width="130" height="50" as="geometry" />
        </mxCell>
        <mxCell id="H0bmIItS4Dz55dsVRSiV-65" style="edgeStyle=orthogonalEdgeStyle;rounded=0;orthogonalLoop=1;jettySize=auto;html=1;exitX=0.75;exitY=1;exitDx=0;exitDy=0;entryX=0.074;entryY=0.24;entryDx=0;entryDy=0;entryPerimeter=0;shadow=1;strokeColor=default;endArrow=none;endFill=0;curved=1;" parent="1" source="H0bmIItS4Dz55dsVRSiV-4" target="H0bmIItS4Dz55dsVRSiV-64" edge="1">
          <mxGeometry relative="1" as="geometry" />
        </mxCell>
        <mxCell id="H0bmIItS4Dz55dsVRSiV-67" value="" style="endArrow=none;html=1;rounded=0;shadow=1;strokeColor=default;dashed=1;" parent="1" edge="1">
          <mxGeometry width="50" height="50" relative="1" as="geometry">
            <mxPoint x="915" y="796" as="sourcePoint" />
            <mxPoint x="935" y="796" as="targetPoint" />
          </mxGeometry>
        </mxCell>
        <mxCell id="H0bmIItS4Dz55dsVRSiV-68" value="" style="endArrow=none;html=1;rounded=0;shadow=1;strokeColor=default;dashed=1;" parent="1" edge="1">
          <mxGeometry width="50" height="50" relative="1" as="geometry">
            <mxPoint x="1076" y="536" as="sourcePoint" />
            <mxPoint x="1096" y="536" as="targetPoint" />
          </mxGeometry>
        </mxCell>
        <mxCell id="H0bmIItS4Dz55dsVRSiV-90" style="edgeStyle=orthogonalEdgeStyle;rounded=0;orthogonalLoop=1;jettySize=auto;html=1;exitX=1;exitY=0.5;exitDx=0;exitDy=0;entryX=0;entryY=0.5;entryDx=0;entryDy=0;curved=1;" parent="1" source="H0bmIItS4Dz55dsVRSiV-69" target="H0bmIItS4Dz55dsVRSiV-73" edge="1">
          <mxGeometry relative="1" as="geometry">
            <Array as="points">
              <mxPoint x="215" y="1360" />
              <mxPoint x="270" y="1360" />
              <mxPoint x="270" y="1433" />
            </Array>
          </mxGeometry>
        </mxCell>
        <mxCell id="H0bmIItS4Dz55dsVRSiV-91" style="edgeStyle=orthogonalEdgeStyle;rounded=0;orthogonalLoop=1;jettySize=auto;html=1;exitX=1;exitY=0.75;exitDx=0;exitDy=0;entryX=0;entryY=0.5;entryDx=0;entryDy=0;curved=1;" parent="1" source="H0bmIItS4Dz55dsVRSiV-69" target="H0bmIItS4Dz55dsVRSiV-74" edge="1">
          <mxGeometry relative="1" as="geometry">
            <Array as="points">
              <mxPoint x="240" y="1365" />
              <mxPoint x="240" y="1576" />
            </Array>
          </mxGeometry>
        </mxCell>
        <mxCell id="H0bmIItS4Dz55dsVRSiV-69" value="Student" style="rounded=1;whiteSpace=wrap;html=1;" parent="1" vertex="1">
          <mxGeometry x="35" y="1320" width="180" height="60" as="geometry" />
        </mxCell>
        <mxCell id="H0bmIItS4Dz55dsVRSiV-80" style="edgeStyle=orthogonalEdgeStyle;rounded=0;orthogonalLoop=1;jettySize=auto;html=1;exitX=1;exitY=0.25;exitDx=0;exitDy=0;entryX=0;entryY=0.5;entryDx=0;entryDy=0;curved=1;" parent="1" source="H0bmIItS4Dz55dsVRSiV-70" target="H0bmIItS4Dz55dsVRSiV-71" edge="1">
          <mxGeometry relative="1" as="geometry" />
        </mxCell>
        <mxCell id="H0bmIItS4Dz55dsVRSiV-81" style="edgeStyle=orthogonalEdgeStyle;rounded=0;orthogonalLoop=1;jettySize=auto;html=1;exitX=1;exitY=0.5;exitDx=0;exitDy=0;entryX=0;entryY=0.5;entryDx=0;entryDy=0;curved=1;" parent="1" source="H0bmIItS4Dz55dsVRSiV-70" target="H0bmIItS4Dz55dsVRSiV-72" edge="1">
          <mxGeometry relative="1" as="geometry" />
        </mxCell>
        <mxCell id="H0bmIItS4Dz55dsVRSiV-87" style="edgeStyle=orthogonalEdgeStyle;rounded=0;orthogonalLoop=1;jettySize=auto;html=1;exitX=1;exitY=0.75;exitDx=0;exitDy=0;entryX=0.5;entryY=0;entryDx=0;entryDy=0;curved=1;" parent="1" source="H0bmIItS4Dz55dsVRSiV-70" target="H0bmIItS4Dz55dsVRSiV-73" edge="1">
          <mxGeometry relative="1" as="geometry">
            <Array as="points">
              <mxPoint x="225" y="1350" />
              <mxPoint x="395" y="1350" />
            </Array>
          </mxGeometry>
        </mxCell>
        <mxCell id="H0bmIItS4Dz55dsVRSiV-70" value="Organizer" style="rounded=1;whiteSpace=wrap;html=1;" parent="1" vertex="1">
          <mxGeometry x="35" y="1200" width="190" height="60" as="geometry" />
        </mxCell>
        <mxCell id="H0bmIItS4Dz55dsVRSiV-100" style="edgeStyle=orthogonalEdgeStyle;rounded=0;orthogonalLoop=1;jettySize=auto;html=1;exitX=1;exitY=0.5;exitDx=0;exitDy=0;" parent="1" source="H0bmIItS4Dz55dsVRSiV-71" target="H0bmIItS4Dz55dsVRSiV-92" edge="1">
          <mxGeometry relative="1" as="geometry" />
        </mxCell>
        <mxCell id="H0bmIItS4Dz55dsVRSiV-104" style="edgeStyle=orthogonalEdgeStyle;rounded=0;orthogonalLoop=1;jettySize=auto;html=1;exitX=1;exitY=0.5;exitDx=0;exitDy=0;entryX=0;entryY=0.5;entryDx=0;entryDy=0;" parent="1" source="H0bmIItS4Dz55dsVRSiV-71" target="H0bmIItS4Dz55dsVRSiV-93" edge="1">
          <mxGeometry relative="1" as="geometry">
            <Array as="points">
              <mxPoint x="465" y="1130" />
              <mxPoint x="590" y="1130" />
              <mxPoint x="590" y="1180" />
            </Array>
          </mxGeometry>
        </mxCell>
        <mxCell id="H0bmIItS4Dz55dsVRSiV-105" style="edgeStyle=orthogonalEdgeStyle;rounded=0;orthogonalLoop=1;jettySize=auto;html=1;exitX=1;exitY=1;exitDx=0;exitDy=0;entryX=0;entryY=0.25;entryDx=0;entryDy=0;" parent="1" source="H0bmIItS4Dz55dsVRSiV-71" target="H0bmIItS4Dz55dsVRSiV-95" edge="1">
          <mxGeometry relative="1" as="geometry">
            <Array as="points">
              <mxPoint x="490" y="1169" />
              <mxPoint x="490" y="1260" />
            </Array>
          </mxGeometry>
        </mxCell>
        <mxCell id="H0bmIItS4Dz55dsVRSiV-71" value="Event" style="ellipse;whiteSpace=wrap;html=1;aspect=fixed;" parent="1" vertex="1">
          <mxGeometry x="325" y="1050" width="140" height="140" as="geometry" />
        </mxCell>
        <mxCell id="H0bmIItS4Dz55dsVRSiV-97" style="edgeStyle=orthogonalEdgeStyle;rounded=0;orthogonalLoop=1;jettySize=auto;html=1;exitX=1;exitY=0.5;exitDx=0;exitDy=0;entryX=0;entryY=0.5;entryDx=0;entryDy=0;" parent="1" source="H0bmIItS4Dz55dsVRSiV-72" target="H0bmIItS4Dz55dsVRSiV-95" edge="1">
          <mxGeometry relative="1" as="geometry" />
        </mxCell>
        <mxCell id="H0bmIItS4Dz55dsVRSiV-113" style="edgeStyle=orthogonalEdgeStyle;rounded=0;orthogonalLoop=1;jettySize=auto;html=1;exitX=1;exitY=1;exitDx=0;exitDy=0;entryX=0;entryY=0.5;entryDx=0;entryDy=0;" parent="1" source="H0bmIItS4Dz55dsVRSiV-72" target="H0bmIItS4Dz55dsVRSiV-96" edge="1">
          <mxGeometry relative="1" as="geometry" />
        </mxCell>
        <mxCell id="H0bmIItS4Dz55dsVRSiV-72" value="Attandence" style="ellipse;whiteSpace=wrap;html=1;aspect=fixed;" parent="1" vertex="1">
          <mxGeometry x="325" y="1200" width="140" height="140" as="geometry" />
        </mxCell>
        <mxCell id="H0bmIItS4Dz55dsVRSiV-108" style="edgeStyle=orthogonalEdgeStyle;rounded=0;orthogonalLoop=1;jettySize=auto;html=1;exitX=1;exitY=0.5;exitDx=0;exitDy=0;" parent="1" source="H0bmIItS4Dz55dsVRSiV-73" target="H0bmIItS4Dz55dsVRSiV-94" edge="1">
          <mxGeometry relative="1" as="geometry" />
        </mxCell>
        <mxCell id="H0bmIItS4Dz55dsVRSiV-73" value="Schedule" style="ellipse;whiteSpace=wrap;html=1;aspect=fixed;" parent="1" vertex="1">
          <mxGeometry x="325" y="1363" width="140" height="140" as="geometry" />
        </mxCell>
        <mxCell id="H0bmIItS4Dz55dsVRSiV-74" value="ChatBoat" style="ellipse;whiteSpace=wrap;html=1;aspect=fixed;" parent="1" vertex="1">
          <mxGeometry x="325" y="1506" width="140" height="140" as="geometry" />
        </mxCell>
        <mxCell id="H0bmIItS4Dz55dsVRSiV-86" style="edgeStyle=orthogonalEdgeStyle;rounded=0;orthogonalLoop=1;jettySize=auto;html=1;exitX=1;exitY=0.25;exitDx=0;exitDy=0;entryX=0.036;entryY=0.605;entryDx=0;entryDy=0;entryPerimeter=0;curved=1;" parent="1" source="H0bmIItS4Dz55dsVRSiV-69" target="H0bmIItS4Dz55dsVRSiV-72" edge="1">
          <mxGeometry relative="1" as="geometry" />
        </mxCell>
        <mxCell id="H0bmIItS4Dz55dsVRSiV-92" value="M_Event" style="html=1;dashed=0;whiteSpace=wrap;shape=partialRectangle;right=0;left=0;" parent="1" vertex="1">
          <mxGeometry x="714" y="1100" width="146" height="40" as="geometry" />
        </mxCell>
        <mxCell id="H0bmIItS4Dz55dsVRSiV-102" style="edgeStyle=orthogonalEdgeStyle;rounded=0;orthogonalLoop=1;jettySize=auto;html=1;exitX=1;exitY=0.5;exitDx=0;exitDy=0;entryX=1;entryY=0.5;entryDx=0;entryDy=0;" parent="1" source="H0bmIItS4Dz55dsVRSiV-93" target="H0bmIItS4Dz55dsVRSiV-74" edge="1">
          <mxGeometry relative="1" as="geometry">
            <Array as="points">
              <mxPoint x="980" y="1180" />
              <mxPoint x="980" y="1576" />
            </Array>
          </mxGeometry>
        </mxCell>
        <mxCell id="H0bmIItS4Dz55dsVRSiV-111" style="edgeStyle=orthogonalEdgeStyle;rounded=0;orthogonalLoop=1;jettySize=auto;html=1;exitX=1;exitY=0.75;exitDx=0;exitDy=0;entryX=1;entryY=1;entryDx=0;entryDy=0;" parent="1" source="H0bmIItS4Dz55dsVRSiV-93" target="H0bmIItS4Dz55dsVRSiV-73" edge="1">
          <mxGeometry relative="1" as="geometry">
            <Array as="points">
              <mxPoint x="940" y="1190" />
              <mxPoint x="940" y="1483" />
            </Array>
          </mxGeometry>
        </mxCell>
        <mxCell id="H0bmIItS4Dz55dsVRSiV-93" value="S_Event" style="html=1;dashed=0;whiteSpace=wrap;shape=partialRectangle;right=0;left=0;" parent="1" vertex="1">
          <mxGeometry x="715" y="1160" width="145" height="40" as="geometry" />
        </mxCell>
        <mxCell id="H0bmIItS4Dz55dsVRSiV-112" style="edgeStyle=orthogonalEdgeStyle;rounded=0;orthogonalLoop=1;jettySize=auto;html=1;exitX=0;exitY=0.25;exitDx=0;exitDy=0;" parent="1" source="H0bmIItS4Dz55dsVRSiV-94" edge="1">
          <mxGeometry relative="1" as="geometry">
            <mxPoint x="470" y="1422.6666666666665" as="targetPoint" />
          </mxGeometry>
        </mxCell>
        <mxCell id="H0bmIItS4Dz55dsVRSiV-94" value="Schedule" style="html=1;dashed=0;whiteSpace=wrap;shape=partialRectangle;right=0;left=0;" parent="1" vertex="1">
          <mxGeometry x="715" y="1413" width="146" height="40" as="geometry" />
        </mxCell>
        <mxCell id="H0bmIItS4Dz55dsVRSiV-110" style="edgeStyle=orthogonalEdgeStyle;rounded=0;orthogonalLoop=1;jettySize=auto;html=1;exitX=0;exitY=0.75;exitDx=0;exitDy=0;" parent="1" source="H0bmIItS4Dz55dsVRSiV-95" edge="1">
          <mxGeometry relative="1" as="geometry">
            <mxPoint x="470" y="1282.6666666666665" as="targetPoint" />
          </mxGeometry>
        </mxCell>
        <mxCell id="H0bmIItS4Dz55dsVRSiV-95" value="User" style="html=1;dashed=0;whiteSpace=wrap;shape=partialRectangle;right=0;left=0;" parent="1" vertex="1">
          <mxGeometry x="714" y="1249" width="146" height="44" as="geometry" />
        </mxCell>
        <mxCell id="H0bmIItS4Dz55dsVRSiV-96" value="Attandence" style="html=1;dashed=0;whiteSpace=wrap;shape=partialRectangle;right=0;left=0;" parent="1" vertex="1">
          <mxGeometry x="715" y="1340" width="145" height="40" as="geometry" />
        </mxCell>
        <mxCell id="H0bmIItS4Dz55dsVRSiV-106" style="edgeStyle=orthogonalEdgeStyle;rounded=0;orthogonalLoop=1;jettySize=auto;html=1;exitX=0;exitY=0;exitDx=0;exitDy=0;" parent="1" source="H0bmIItS4Dz55dsVRSiV-95" target="H0bmIItS4Dz55dsVRSiV-71" edge="1">
          <mxGeometry relative="1" as="geometry">
            <Array as="points">
              <mxPoint x="500" y="1249" />
              <mxPoint x="500" y="1160" />
            </Array>
          </mxGeometry>
        </mxCell>
        <mxCell id="H0bmIItS4Dz55dsVRSiV-114" style="edgeStyle=orthogonalEdgeStyle;rounded=0;orthogonalLoop=1;jettySize=auto;html=1;exitX=0;exitY=0.25;exitDx=0;exitDy=0;entryX=0.962;entryY=0.69;entryDx=0;entryDy=0;entryPerimeter=0;" parent="1" source="H0bmIItS4Dz55dsVRSiV-96" target="H0bmIItS4Dz55dsVRSiV-72" edge="1">
          <mxGeometry relative="1" as="geometry">
            <Array as="points">
              <mxPoint x="610" y="1350" />
              <mxPoint x="610" y="1297" />
            </Array>
          </mxGeometry>
        </mxCell>
        <mxCell id="H0bmIItS4Dz55dsVRSiV-115" value="Student" style="rounded=1;whiteSpace=wrap;html=1;" parent="1" vertex="1">
          <mxGeometry x="30" y="870" width="155" height="80" as="geometry" />
        </mxCell>
        <mxCell id="H0bmIItS4Dz55dsVRSiV-120" style="edgeStyle=orthogonalEdgeStyle;rounded=0;orthogonalLoop=1;jettySize=auto;html=1;exitX=0;exitY=0.5;exitDx=0;exitDy=0;entryX=1;entryY=0.5;entryDx=0;entryDy=0;" parent="1" source="H0bmIItS4Dz55dsVRSiV-116" target="H0bmIItS4Dz55dsVRSiV-115" edge="1">
          <mxGeometry relative="1" as="geometry" />
        </mxCell>
        <mxCell id="H0bmIItS4Dz55dsVRSiV-123" value="res" style="edgeLabel;html=1;align=center;verticalAlign=middle;resizable=0;points=[];" parent="H0bmIItS4Dz55dsVRSiV-120" vertex="1" connectable="0">
          <mxGeometry x="-0.0703" y="5" relative="1" as="geometry">
            <mxPoint as="offset" />
          </mxGeometry>
        </mxCell>
        <mxCell id="H0bmIItS4Dz55dsVRSiV-121" style="edgeStyle=orthogonalEdgeStyle;rounded=0;orthogonalLoop=1;jettySize=auto;html=1;exitX=1;exitY=0.5;exitDx=0;exitDy=0;entryX=0;entryY=0.5;entryDx=0;entryDy=0;" parent="1" source="H0bmIItS4Dz55dsVRSiV-116" target="H0bmIItS4Dz55dsVRSiV-117" edge="1">
          <mxGeometry relative="1" as="geometry" />
        </mxCell>
        <mxCell id="H0bmIItS4Dz55dsVRSiV-125" value="res" style="edgeLabel;html=1;align=center;verticalAlign=middle;resizable=0;points=[];" parent="H0bmIItS4Dz55dsVRSiV-121" vertex="1" connectable="0">
          <mxGeometry x="0.1532" y="-2" relative="1" as="geometry">
            <mxPoint as="offset" />
          </mxGeometry>
        </mxCell>
        <mxCell id="H0bmIItS4Dz55dsVRSiV-116" value="ECE" style="ellipse;whiteSpace=wrap;html=1;aspect=fixed;" parent="1" vertex="1">
          <mxGeometry x="370" y="840" width="140" height="140" as="geometry" />
        </mxCell>
        <mxCell id="H0bmIItS4Dz55dsVRSiV-117" value="Organization" style="rounded=1;whiteSpace=wrap;html=1;" parent="1" vertex="1">
          <mxGeometry x="730" y="870" width="155" height="80" as="geometry" />
        </mxCell>
        <mxCell id="H0bmIItS4Dz55dsVRSiV-118" style="edgeStyle=orthogonalEdgeStyle;rounded=0;orthogonalLoop=1;jettySize=auto;html=1;exitX=1;exitY=0.25;exitDx=0;exitDy=0;entryX=-0.002;entryY=0.361;entryDx=0;entryDy=0;entryPerimeter=0;" parent="1" source="H0bmIItS4Dz55dsVRSiV-115" target="H0bmIItS4Dz55dsVRSiV-116" edge="1">
          <mxGeometry relative="1" as="geometry" />
        </mxCell>
        <mxCell id="H0bmIItS4Dz55dsVRSiV-122" value="req" style="edgeLabel;html=1;align=center;verticalAlign=middle;resizable=0;points=[];" parent="H0bmIItS4Dz55dsVRSiV-118" vertex="1" connectable="0">
          <mxGeometry x="-0.2701" y="-2" relative="1" as="geometry">
            <mxPoint as="offset" />
          </mxGeometry>
        </mxCell>
        <mxCell id="H0bmIItS4Dz55dsVRSiV-119" style="edgeStyle=orthogonalEdgeStyle;rounded=0;orthogonalLoop=1;jettySize=auto;html=1;exitX=0;exitY=0.25;exitDx=0;exitDy=0;entryX=0.957;entryY=0.351;entryDx=0;entryDy=0;entryPerimeter=0;" parent="1" source="H0bmIItS4Dz55dsVRSiV-117" target="H0bmIItS4Dz55dsVRSiV-116" edge="1">
          <mxGeometry relative="1" as="geometry" />
        </mxCell>
        <mxCell id="H0bmIItS4Dz55dsVRSiV-124" value="req" style="edgeLabel;html=1;align=center;verticalAlign=middle;resizable=0;points=[];" parent="H0bmIItS4Dz55dsVRSiV-119" vertex="1" connectable="0">
          <mxGeometry x="-0.0228" y="-3" relative="1" as="geometry">
            <mxPoint x="2" as="offset" />
          </mxGeometry>
        </mxCell>
        <mxCell id="iLCdiL2pcSlbcXiWlhYy-3" value="" style="endArrow=classic;html=1;rounded=0;entryX=1;entryY=0.5;entryDx=0;entryDy=0;" edge="1" parent="1" target="H0bmIItS4Dz55dsVRSiV-94">
          <mxGeometry width="50" height="50" relative="1" as="geometry">
            <mxPoint x="460" y="1150" as="sourcePoint" />
            <mxPoint x="510" y="1100" as="targetPoint" />
            <Array as="points">
              <mxPoint x="510" y="1150" />
              <mxPoint x="510" y="1220" />
              <mxPoint x="920" y="1220" />
              <mxPoint x="920" y="1433" />
            </Array>
          </mxGeometry>
        </mxCell>
      </root>
    </mxGraphModel>
  </diagram>
</mxfile>
